<mxfile host="app.diagrams.net" modified="2024-05-03T08:53:01.477Z" agent="Mozilla/5.0 (Windows NT 10.0; Win64; x64) AppleWebKit/537.36 (KHTML, like Gecko) Chrome/124.0.0.0 Safari/537.36" etag="ur4MMbz7b7Whk0wXVxCx" version="24.2.9" type="device">
  <diagram name="Page-1" id="g1dCOy7MmsEfj-mHgHiR">
    <mxGraphModel dx="724" dy="389" grid="1" gridSize="10" guides="1" tooltips="1" connect="1" arrows="1" fold="1" page="1" pageScale="1" pageWidth="850" pageHeight="1100" math="0" shadow="0">
      <root>
        <mxCell id="0" />
        <mxCell id="1" parent="0" />
        <mxCell id="GlraXrTmuPTZL_h2a3OJ-20" style="edgeStyle=orthogonalEdgeStyle;rounded=0;orthogonalLoop=1;jettySize=auto;html=1;fillColor=#d5e8d4;strokeColor=#82b366;" edge="1" parent="1" source="GlraXrTmuPTZL_h2a3OJ-6" target="GlraXrTmuPTZL_h2a3OJ-10">
          <mxGeometry relative="1" as="geometry" />
        </mxCell>
        <mxCell id="GlraXrTmuPTZL_h2a3OJ-31" style="edgeStyle=orthogonalEdgeStyle;rounded=0;orthogonalLoop=1;jettySize=auto;html=1;" edge="1" parent="1" source="GlraXrTmuPTZL_h2a3OJ-6" target="GlraXrTmuPTZL_h2a3OJ-12">
          <mxGeometry relative="1" as="geometry" />
        </mxCell>
        <mxCell id="GlraXrTmuPTZL_h2a3OJ-33" value="" style="edgeStyle=orthogonalEdgeStyle;rounded=0;orthogonalLoop=1;jettySize=auto;html=1;fillColor=#ffe6cc;strokeColor=#d79b00;" edge="1" parent="1" source="GlraXrTmuPTZL_h2a3OJ-6" target="GlraXrTmuPTZL_h2a3OJ-12">
          <mxGeometry relative="1" as="geometry" />
        </mxCell>
        <mxCell id="GlraXrTmuPTZL_h2a3OJ-6" value="MQTT&#xa;protocol" style="sketch=0;outlineConnect=0;fontColor=#232F3E;gradientColor=none;strokeColor=#232F3E;fillColor=#ffffff;dashed=0;verticalLabelPosition=bottom;verticalAlign=top;align=center;html=1;fontSize=12;fontStyle=0;aspect=fixed;shape=mxgraph.aws4.resourceIcon;resIcon=mxgraph.aws4.mqtt_protocol;" vertex="1" parent="1">
          <mxGeometry x="308.5" y="198.5" width="43" height="43" as="geometry" />
        </mxCell>
        <mxCell id="GlraXrTmuPTZL_h2a3OJ-7" value="" style="shape=mxgraph.pid.pumps.centrifugal_pump_2;html=1;pointerEvents=1;align=center;verticalLabelPosition=bottom;verticalAlign=top;dashed=0;fillColor=#ffe6cc;strokeColor=#d79b00;" vertex="1" parent="1">
          <mxGeometry x="680" y="322" width="62" height="77" as="geometry" />
        </mxCell>
        <mxCell id="GlraXrTmuPTZL_h2a3OJ-16" style="edgeStyle=orthogonalEdgeStyle;rounded=0;orthogonalLoop=1;jettySize=auto;html=1;fillColor=#d5e8d4;strokeColor=#82b366;" edge="1" parent="1" source="GlraXrTmuPTZL_h2a3OJ-8" target="GlraXrTmuPTZL_h2a3OJ-9">
          <mxGeometry relative="1" as="geometry" />
        </mxCell>
        <mxCell id="GlraXrTmuPTZL_h2a3OJ-8" value="" style="sketch=0;outlineConnect=0;fontColor=#232F3E;gradientColor=none;fillColor=#7AA116;strokeColor=none;dashed=0;verticalLabelPosition=bottom;verticalAlign=top;align=center;html=1;fontSize=12;fontStyle=0;aspect=fixed;pointerEvents=1;shape=mxgraph.aws4.iot_thing_temperature_humidity_sensor;" vertex="1" parent="1">
          <mxGeometry x="630" y="40" width="78" height="78" as="geometry" />
        </mxCell>
        <mxCell id="GlraXrTmuPTZL_h2a3OJ-41" style="edgeStyle=orthogonalEdgeStyle;rounded=0;orthogonalLoop=1;jettySize=auto;html=1;fillColor=#d5e8d4;strokeColor=#82b366;" edge="1" parent="1" source="GlraXrTmuPTZL_h2a3OJ-9" target="GlraXrTmuPTZL_h2a3OJ-37">
          <mxGeometry relative="1" as="geometry">
            <Array as="points">
              <mxPoint x="610" y="230" />
              <mxPoint x="610" y="230" />
            </Array>
          </mxGeometry>
        </mxCell>
        <mxCell id="GlraXrTmuPTZL_h2a3OJ-9" value="" style="sketch=0;outlineConnect=0;fontColor=#232F3E;gradientColor=none;fillColor=#7AA116;strokeColor=none;dashed=0;verticalLabelPosition=bottom;verticalAlign=top;align=center;html=1;fontSize=12;fontStyle=0;aspect=fixed;pointerEvents=1;shape=mxgraph.aws4.iot_thing_plc;" vertex="1" parent="1">
          <mxGeometry x="630" y="191" width="78" height="78" as="geometry" />
        </mxCell>
        <mxCell id="GlraXrTmuPTZL_h2a3OJ-30" style="edgeStyle=orthogonalEdgeStyle;rounded=0;orthogonalLoop=1;jettySize=auto;html=1;fillColor=#ffe6cc;strokeColor=#d79b00;" edge="1" parent="1" source="GlraXrTmuPTZL_h2a3OJ-10" target="GlraXrTmuPTZL_h2a3OJ-6">
          <mxGeometry relative="1" as="geometry">
            <Array as="points">
              <mxPoint x="260" y="230" />
              <mxPoint x="260" y="230" />
            </Array>
          </mxGeometry>
        </mxCell>
        <mxCell id="GlraXrTmuPTZL_h2a3OJ-10" value="Raspberry Pi&amp;nbsp;&lt;br&gt;Casa OS&lt;div&gt;Node Red UI and Control Panel&lt;/div&gt;" style="pointerEvents=1;shadow=0;dashed=0;html=1;strokeColor=none;fillColor=#4495D1;labelPosition=center;verticalLabelPosition=bottom;verticalAlign=top;align=center;outlineConnect=0;shape=mxgraph.veeam.cpu;" vertex="1" parent="1">
          <mxGeometry x="150" y="185" width="80" height="70" as="geometry" />
        </mxCell>
        <mxCell id="GlraXrTmuPTZL_h2a3OJ-11" value="" style="html=1;verticalLabelPosition=bottom;align=center;labelBackgroundColor=#ffffff;verticalAlign=top;strokeWidth=2;strokeColor=#0080F0;shadow=0;dashed=0;shape=mxgraph.ios7.icons.wifi;pointerEvents=1" vertex="1" parent="1">
          <mxGeometry x="320" y="212" width="10" height="8" as="geometry" />
        </mxCell>
        <mxCell id="GlraXrTmuPTZL_h2a3OJ-19" value="" style="edgeStyle=orthogonalEdgeStyle;rounded=0;orthogonalLoop=1;jettySize=auto;html=1;fillColor=#d5e8d4;strokeColor=#82b366;" edge="1" parent="1" source="GlraXrTmuPTZL_h2a3OJ-12" target="GlraXrTmuPTZL_h2a3OJ-6">
          <mxGeometry relative="1" as="geometry">
            <Array as="points">
              <mxPoint x="390" y="230" />
              <mxPoint x="390" y="230" />
            </Array>
          </mxGeometry>
        </mxCell>
        <mxCell id="GlraXrTmuPTZL_h2a3OJ-39" style="edgeStyle=orthogonalEdgeStyle;rounded=0;orthogonalLoop=1;jettySize=auto;html=1;fillColor=#ffe6cc;strokeColor=#d79b00;" edge="1" parent="1" source="GlraXrTmuPTZL_h2a3OJ-12" target="GlraXrTmuPTZL_h2a3OJ-37">
          <mxGeometry relative="1" as="geometry" />
        </mxCell>
        <mxCell id="GlraXrTmuPTZL_h2a3OJ-12" value="Raspberry Pi&lt;br&gt;Mosquitto&lt;br&gt;MQTT Broker&lt;div&gt;&lt;br&gt;&lt;/div&gt;" style="sketch=0;outlineConnect=0;fontColor=#232F3E;gradientColor=none;fillColor=#E7157B;strokeColor=none;dashed=0;verticalLabelPosition=bottom;verticalAlign=top;align=center;html=1;fontSize=12;fontStyle=0;aspect=fixed;pointerEvents=1;shape=mxgraph.aws4.mq_broker;" vertex="1" parent="1">
          <mxGeometry x="410" y="186" width="78" height="69" as="geometry" />
        </mxCell>
        <mxCell id="GlraXrTmuPTZL_h2a3OJ-15" style="edgeStyle=orthogonalEdgeStyle;rounded=0;orthogonalLoop=1;jettySize=auto;html=1;entryX=0.358;entryY=-0.016;entryDx=0;entryDy=0;entryPerimeter=0;fillColor=#ffe6cc;strokeColor=#d79b00;" edge="1" parent="1" source="GlraXrTmuPTZL_h2a3OJ-9" target="GlraXrTmuPTZL_h2a3OJ-7">
          <mxGeometry relative="1" as="geometry" />
        </mxCell>
        <mxCell id="GlraXrTmuPTZL_h2a3OJ-25" style="edgeStyle=orthogonalEdgeStyle;rounded=0;orthogonalLoop=1;jettySize=auto;html=1;fillColor=#ffe6cc;strokeColor=#d79b00;" edge="1" parent="1" source="GlraXrTmuPTZL_h2a3OJ-22" target="GlraXrTmuPTZL_h2a3OJ-10">
          <mxGeometry relative="1" as="geometry">
            <Array as="points">
              <mxPoint x="190" y="130" />
              <mxPoint x="190" y="130" />
            </Array>
          </mxGeometry>
        </mxCell>
        <mxCell id="GlraXrTmuPTZL_h2a3OJ-34" style="edgeStyle=orthogonalEdgeStyle;rounded=0;orthogonalLoop=1;jettySize=auto;html=1;startArrow=classic;startFill=1;endArrow=none;endFill=0;fillColor=#d5e8d4;strokeColor=#82b366;" edge="1" parent="1" source="GlraXrTmuPTZL_h2a3OJ-22">
          <mxGeometry relative="1" as="geometry">
            <mxPoint x="210" y="180" as="targetPoint" />
            <Array as="points">
              <mxPoint x="210" y="120" />
              <mxPoint x="210" y="120" />
            </Array>
          </mxGeometry>
        </mxCell>
        <mxCell id="GlraXrTmuPTZL_h2a3OJ-22" value="RPi IP:1880/ui" style="sketch=0;outlineConnect=0;fontColor=#232F3E;gradientColor=none;fillColor=#8C4FFF;strokeColor=none;dashed=0;verticalLabelPosition=bottom;verticalAlign=top;align=center;html=1;fontSize=12;fontStyle=0;aspect=fixed;pointerEvents=1;shape=mxgraph.aws4.opensearch_dashboards;" vertex="1" parent="1">
          <mxGeometry x="152" y="40" width="78" height="59" as="geometry" />
        </mxCell>
        <mxCell id="GlraXrTmuPTZL_h2a3OJ-40" style="edgeStyle=orthogonalEdgeStyle;rounded=0;orthogonalLoop=1;jettySize=auto;html=1;fillColor=#ffe6cc;strokeColor=#d79b00;" edge="1" parent="1" source="GlraXrTmuPTZL_h2a3OJ-37">
          <mxGeometry relative="1" as="geometry">
            <mxPoint x="620" y="220" as="targetPoint" />
          </mxGeometry>
        </mxCell>
        <mxCell id="GlraXrTmuPTZL_h2a3OJ-42" style="edgeStyle=orthogonalEdgeStyle;rounded=0;orthogonalLoop=1;jettySize=auto;html=1;fillColor=#d5e8d4;strokeColor=#82b366;" edge="1" parent="1" source="GlraXrTmuPTZL_h2a3OJ-37" target="GlraXrTmuPTZL_h2a3OJ-12">
          <mxGeometry relative="1" as="geometry">
            <Array as="points">
              <mxPoint x="509" y="230" />
              <mxPoint x="509" y="230" />
            </Array>
          </mxGeometry>
        </mxCell>
        <mxCell id="GlraXrTmuPTZL_h2a3OJ-37" value="MQTT&#xa;protocol" style="sketch=0;outlineConnect=0;fontColor=#232F3E;gradientColor=none;strokeColor=#232F3E;fillColor=#ffffff;dashed=0;verticalLabelPosition=bottom;verticalAlign=top;align=center;html=1;fontSize=12;fontStyle=0;aspect=fixed;shape=mxgraph.aws4.resourceIcon;resIcon=mxgraph.aws4.mqtt_protocol;" vertex="1" parent="1">
          <mxGeometry x="530" y="198.5" width="43" height="43" as="geometry" />
        </mxCell>
        <mxCell id="GlraXrTmuPTZL_h2a3OJ-38" value="" style="html=1;verticalLabelPosition=bottom;align=center;labelBackgroundColor=#ffffff;verticalAlign=top;strokeWidth=2;strokeColor=#0080F0;shadow=0;dashed=0;shape=mxgraph.ios7.icons.wifi;pointerEvents=1" vertex="1" parent="1">
          <mxGeometry x="541.5" y="212" width="10" height="8" as="geometry" />
        </mxCell>
        <mxCell id="GlraXrTmuPTZL_h2a3OJ-50" value="" style="endArrow=classic;html=1;rounded=0;fillColor=#ffe6cc;strokeColor=#d79b00;" edge="1" parent="1">
          <mxGeometry width="50" height="50" relative="1" as="geometry">
            <mxPoint x="403" y="344.66" as="sourcePoint" />
            <mxPoint x="471.5" y="344.66" as="targetPoint" />
          </mxGeometry>
        </mxCell>
        <mxCell id="GlraXrTmuPTZL_h2a3OJ-51" value="" style="endArrow=classic;html=1;rounded=0;fillColor=#d5e8d4;strokeColor=#82b366;" edge="1" parent="1">
          <mxGeometry width="50" height="50" relative="1" as="geometry">
            <mxPoint x="400" y="374.66" as="sourcePoint" />
            <mxPoint x="468.5" y="374.66" as="targetPoint" />
          </mxGeometry>
        </mxCell>
        <mxCell id="GlraXrTmuPTZL_h2a3OJ-52" value="Publish" style="text;html=1;align=center;verticalAlign=middle;resizable=0;points=[];autosize=1;strokeColor=none;fillColor=none;" vertex="1" parent="1">
          <mxGeometry x="471.5" y="330" width="60" height="30" as="geometry" />
        </mxCell>
        <mxCell id="GlraXrTmuPTZL_h2a3OJ-53" value="Subscribe" style="text;html=1;align=center;verticalAlign=middle;resizable=0;points=[];autosize=1;strokeColor=none;fillColor=none;" vertex="1" parent="1">
          <mxGeometry x="461.5" y="360" width="80" height="30" as="geometry" />
        </mxCell>
      </root>
    </mxGraphModel>
  </diagram>
</mxfile>
